<!DOCTYPE svg PUBLIC "-//W3C//DTD SVG 1.1//EN" "http://www.w3.org/Graphics/SVG/1.1/DTD/svg11.dtd">
<!-- Uploaded to: SVG Repo, www.svgrepo.com, Transformed by: SVG Repo Mixer Tools -->
<svg fill="#ffffff" height="800px" width="800px" version="1.1" id="Capa_1" xmlns="http://www.w3.org/2000/svg" xmlns:xlink="http://www.w3.org/1999/xlink" viewBox="0 0 446.493 446.493" xml:space="preserve">
<g id="SVGRepo_bgCarrier" stroke-width="0"/>
<g id="SVGRepo_tracerCarrier" stroke-linecap="round" stroke-linejoin="round"/>
<g id="SVGRepo_iconCarrier"> <path id="XMLID_568_" d="M69.086,166.653c3.075-17.562,11.426-33.267,24.149-45.417c10.156-9.701,22.791-16.77,36.537-20.443 c0.292-0.078,0.586-0.141,0.878-0.188c8.312-2.131,16.825-2.999,25.319-2.588c4.964,0.241,8.793,4.462,8.552,9.426 c-0.241,4.965-4.458,8.805-9.426,8.553c-6.93-0.334-13.88,0.412-20.665,2.226c-0.26,0.07-0.521,0.127-0.781,0.173 c-10.535,2.949-20.195,8.422-27.982,15.859c-9.925,9.479-16.444,21.756-18.851,35.506c-0.766,4.37-4.565,7.449-8.854,7.449 c-0.516,0-1.038-0.045-1.563-0.137C71.503,176.214,68.229,171.55,69.086,166.653z M237.158,176.568 c-2.783-14.7-7.721-27.798-14.678-38.93c-2.635-4.216-8.187-5.496-12.402-2.862c-4.215,2.634-5.496,8.187-2.862,12.401 c5.768,9.229,9.892,20.244,12.257,32.738l32.144,169.837c3.165,16.724,1.425,36.494-4.774,54.241 c-5.252,15.034-6.21,15.25-22.221,18.86c-1.117,0.252-2.286,0.516-3.601,0.818c-0.09,0.021-9.04,2.174-12.306,2.904 c-12.258,2.737-20.537,3.063-26.585-3.382c-0.911-0.972-1.857-1.973-2.831-3.003c-10.704-11.326-25.363-26.837-30.94-42.847 l-5.912-16.971c11.694,10.569,24.801,18.282,38.405,22.53c8.477,2.647,17.138,3.976,25.7,3.976c7.043,0,14.021-0.899,20.767-2.701 c4.802-1.283,7.656-6.216,6.373-11.018c-1.283-4.803-6.218-7.662-11.018-6.373c-11.654,3.114-24.26,2.744-36.456-1.065 c-29.882-9.332-55.325-38.521-69.804-80.081l-0.002-0.004l-15.377-44.144c-1.636-4.694-6.769-7.177-11.459-5.538 c-4.694,1.635-7.174,6.766-5.539,11.46l47.323,135.851c6.846,19.649,23.035,36.78,34.855,49.288c0.959,1.015,1.891,2,2.788,2.957 c8.1,8.631,17.764,10.98,26.485,10.98c6.63,0,12.717-1.359,17.152-2.35c3.408-0.762,12.217-2.881,12.5-2.949 c1.2-0.275,2.346-0.534,3.441-0.78c19-4.284,27.037-6.961,35.255-30.483c7.208-20.64,9.201-43.793,5.466-63.525L237.158,176.568z M73.353,212.557c-17.682-2.415-33.939-10.065-47.016-22.125C13.565,178.653,4.696,163.526,0.69,146.686 c-1.15-4.836,1.837-9.688,6.673-10.839c4.837-1.147,9.689,1.838,10.839,6.673c6.521,27.41,29.664,48.389,57.587,52.203 c15.064,2.058,29.086,7.927,40.995,17.072l-4.418-16.533c-2.833-10.598-1.352-21.694,4.171-31.244 c5.522-9.549,14.4-16.367,24.999-19.199c10.052-2.685,20.55-1.487,29.753,3.354c0.472-6.74,1.723-13.449,3.778-20.008 c5.318-16.975,15.592-31.716,29.712-42.629c0.001-0.001,0.002-0.001,0.004-0.002c22.296-17.234,31.889-46.959,23.869-73.969 c-1.415-4.765,1.301-9.774,6.066-11.189c4.766-1.418,9.774,1.302,11.189,6.066c4.927,16.594,4.786,34.129-0.407,50.707 c-5.317,16.973-15.589,31.711-29.706,42.624c-0.003,0.002-0.005,0.004-0.007,0.006c-22.299,17.234-31.892,46.96-23.872,73.971 c0.006,0.02,0.009,0.04,0.015,0.061c0.016,0.06,0.036,0.118,0.052,0.178l19.048,71.286c2.833,10.599,1.353,21.695-4.169,31.245 c-5.522,9.549-14.401,16.368-25,19.2c-3.549,0.948-7.117,1.4-10.628,1.4c-18.204,0.001-34.902-12.171-39.818-30.571l-1.364-5.103 C122.515,235.673,100.139,216.216,73.353,212.557z M193.641,249.922l-10.924-40.881l-35.201,47.989 c0.308,1.089,0.598,2.186,0.865,3.291l0.423,1.583c3.303,12.36,16.048,19.733,28.409,16.427c5.955-1.591,10.95-5.434,14.065-10.82 C194.394,262.121,195.232,255.876,193.641,249.922z M129.756,190.615l11.789,44.122l35.211-48.003l-2.164-8.099 c-2.769-10.361-12.173-17.216-22.423-17.216c-1.978,0-3.986,0.255-5.985,0.79c0,0-0.001,0.001-0.001,0.001 c-5.954,1.591-10.948,5.434-14.063,10.82C129.004,178.417,128.165,184.662,129.756,190.615z M433.21,65.742 c-7.546-11.843-18.128-21.724-30.601-28.574c-0.268-0.146-0.54-0.278-0.815-0.396c-12.306-6.592-26.019-10.078-39.719-10.09 c-0.023,0-0.043,0-0.067,0c-35.017,0-64.82,21.299-81.769,58.44l-30.606,67.08c-2.063,4.522-0.07,9.861,4.452,11.925 c4.522,2.06,9.86,0.069,11.924-4.452l30.606-67.08c13.896-30.452,37.729-47.913,65.395-47.913c0.017,0,0.034,0,0.051,0 c10.979,0.01,21.997,2.879,31.862,8.298c0.238,0.13,0.479,0.249,0.723,0.355c9.526,5.381,17.599,13,23.384,22.079 c14.879,23.351,12.948,52.851-5.3,80.936l-43.55,67.023c-2.708,4.168-1.525,9.742,2.643,12.45c1.515,0.984,3.214,1.454,4.896,1.454 c2.945,0,5.831-1.443,7.555-4.098l43.55-67.023C450.081,131.9,452.044,95.3,433.21,65.742z M384.425,319.159 c0.519,17.365-4.084,34.285-13.313,48.93c-1.711,2.715-4.634,4.202-7.623,4.202c-1.641,0-3.3-0.447-4.79-1.387 c-4.205-2.65-5.466-8.207-2.816-12.413c14.954-23.729,13.825-54.765-2.768-77.359l-19.471,29.967 c-8.675,13.35-18.607,24.266-29.52,32.445c-1.618,1.214-3.513,1.8-5.391,1.8c-2.737,0-5.44-1.244-7.208-3.603 c-2.981-3.978-2.174-9.619,1.804-12.6c9.217-6.909,17.703-16.279,25.223-27.851l24.414-37.574 c-4.384-10.04-6.822-20.846-7.154-31.97c-0.143-4.795,0.118-9.553,0.745-14.242c-3.75,1.064-7.565,1.6-11.354,1.6 c-6.829,0-13.574-1.712-19.705-5.078c-19.915-10.936-27.221-36.034-16.287-55.948l35.514-64.681 c10.935-19.916,36.032-27.22,55.95-16.287c0,0.001,0.001,0.002,0.001,0.002c19.914,10.935,27.22,36.033,16.286,55.948l-35.516,64.68 c-0.253,0.461-0.522,0.912-0.791,1.361c-10.971,22.766-8.591,50.422,6.688,70.983C377.987,284.409,383.894,301.379,384.425,319.159z M340.503,102.062l-3.111,5.665l16.74,65.937l27.051-49.265c6.157-11.215,2.043-25.35-9.171-31.508h0 c-3.439-1.888-7.229-2.848-11.069-2.848c-2.194,0-4.403,0.313-6.576,0.945C348.393,92.727,343.469,96.661,340.503,102.062z M331.804,200.153c3.48-1.013,6.587-2.79,9.175-5.148l-16.286-64.149l-19.704,35.887c-6.158,11.215-2.043,25.349,9.172,31.507 C319.563,201.216,325.828,201.891,331.804,200.153z"/> </g>
</svg>